<svg width="980" height="584" viewBox="0 0 980 584" fill="none" xmlns="http://www.w3.org/2000/svg">
<rect x="1" width="978.002" height="538.445" fill="white"/>
<rect x="1" y="440" width="978" height="144" fill="#F0F0F0"/>
<path d="M286.524 463.294C284.826 482.449 222.617 492.97 147.176 483.136C71.7359 473.303 11.6324 446.839 13.3303 427.683C15.0281 408.528 77.561 400.972 153.001 410.805C228.442 420.639 288.222 444.139 286.524 463.294Z" fill="white"/>
<ellipse cx="76.6627" cy="166.501" rx="76.6627" ry="166.501" transform="matrix(-0.559673 -0.828713 0.709527 -0.704678 229.812 547.722)" fill="white"/>
<path d="M459.192 468.471C459.192 487.466 418.958 492.191 386.82 492.191C354.682 492.191 323.25 482.722 323.25 463.727C323.25 444.731 354.682 423.402 386.82 423.402C418.958 423.402 459.192 449.475 459.192 468.471Z" fill="#F0F0F0"/>
<path d="M979 510.258C979 549.88 978.01 582 887.573 582C797.136 582 717 553.435 717 513.812C717 474.19 925.781 383.965 979 381C979 486.538 979 470.635 979 510.258Z" fill="#F0F0F0"/>
<path d="M1.00049 383C54.9608 383 98.6315 413.247 146.211 456.489C217.719 521.479 412.5 386.5 341 448.5C295.578 487.887 34.4665 581.035 1.00049 584C1.00049 478.461 1.00049 422.622 1.00049 383Z" fill="#F0F0F0"/>
<path d="M674.5 452.5C675.992 465.475 646.107 474.495 616.15 479.561C586.192 484.627 560.697 478.216 559.205 465.241C557.713 452.267 583.759 437.364 613.716 432.298C643.674 427.231 671.381 438.18 674.5 452.5Z" fill="#F0F0F0"/>
<path d="M507.646 380.043C555.088 383.607 594.315 402.329 593.178 424.587C684.132 397.902 550.97 464.21 503.528 460.646C456.086 457.082 415.023 433.8 416.16 411.543C417.297 389.285 460.204 376.478 507.646 380.043Z" fill="white"/>
<ellipse cx="737.278" cy="437.881" rx="96.916" ry="35.8132" transform="rotate(18.6187 737.278 437.881)" fill="white"/>
<ellipse cx="855.376" cy="417.129" rx="97.8581" ry="37.3137" transform="rotate(-37.4518 855.376 417.129)" fill="white"/>
<path d="M979.046 402C979.099 415.922 969.371 428.547 953.902 428.606C938.432 428.665 909.5 443 914 421C932 367 963.602 377.059 979.071 377C979.131 392.604 978.993 388.079 979.046 402Z" fill="#F0F0F0"/>
</svg>
