<svg width="568" height="362" viewBox="0 0 568 362" fill="none" xmlns="http://www.w3.org/2000/svg">
<g filter="url(#filter0_i_100_2)">
<path d="M207.813 38.5491C235.524 55.6632 164.627 169 152.628 176C109.627 216 43.6283 198 43.6283 198C33.6275 162 56.6274 111.5 59.6273 109.5C90.1273 60.5 180.102 21.435 207.813 38.5491Z" fill="#1D1D1D"/>
</g>
<line x1="23.4448" y1="216.746" x2="45.3696" y2="196.269" stroke="#1D1D1D" stroke-width="2"/>
<path d="M48.2355 194.133L213.785 38.6359" stroke="white"/>
<line x1="59.2536" y1="183.425" x2="50.6322" y2="122.07" stroke="url(#paint0_linear_100_2)"/>
<line x1="75.2533" y1="168.423" x2="65.6319" y2="98.0677" stroke="url(#paint1_linear_100_2)"/>
<line x1="96.2529" y1="149.419" x2="86.6315" y2="75.0642" stroke="url(#paint2_linear_100_2)"/>
<line x1="116.253" y1="130.419" x2="106.631" y2="56.0642" stroke="url(#paint3_linear_100_2)"/>
<line x1="175.253" y1="74.4192" x2="165.631" y2="0.0641681" stroke="url(#paint4_linear_100_2)"/>
<line x1="59.2599" y1="184.287" x2="118.26" y2="200.518" stroke="url(#paint5_linear_100_2)"/>
<line x1="73.2455" y1="170.514" x2="147.245" y2="188.514" stroke="url(#paint6_linear_100_2)"/>
<line x1="95.1282" y1="150.231" x2="172.989" y2="148.5" stroke="url(#paint7_linear_100_2)"/>
<line x1="114.12" y1="132.5" x2="183.993" y2="131.486" stroke="url(#paint8_linear_100_2)"/>
<line x1="86.175" y1="158.502" x2="180.175" y2="167.502" stroke="url(#paint9_linear_100_2)"/>
<line x1="129.107" y1="118.876" x2="195.876" y2="109.134" stroke="white"/>
<line y1="-0.5" x2="65.4676" y2="-0.5" transform="matrix(0.964809 -0.26295 0.374149 0.927369 165.127 85.2147)" stroke="url(#paint10_linear_100_2)"/>
<line x1="146.633" y1="102.075" x2="137.633" y2="43.0754" stroke="url(#paint11_linear_100_2)"/>
<g filter="url(#filter1_i_100_2)">
<path d="M375.253 151.831C392.836 124.415 504.95 197.231 511.745 209.347C551.007 253.023 531.887 318.706 531.887 318.706C495.721 328.092 445.62 304.236 443.671 301.203C395.198 269.873 357.67 179.247 375.253 151.831Z" fill="#1D1D1D"/>
</g>
<line x1="550.286" y1="339.205" x2="530.185" y2="316.935" stroke="#1D1D1D" stroke-width="2"/>
<path d="M528.099 314.033L375.441 145.862" stroke="white"/>
<line x1="517.579" y1="302.835" x2="456.086" y2="310.41" stroke="url(#paint12_linear_100_2)"/>
<line x1="502.852" y1="286.582" x2="432.343" y2="295.004" stroke="url(#paint13_linear_100_2)"/>
<line x1="484.208" y1="265.262" x2="409.7" y2="273.616" stroke="url(#paint14_linear_100_2)"/>
<line x1="465.529" y1="244.943" x2="398.034" y2="249.499" stroke="url(#paint15_linear_100_2)"/>
<line x1="410.569" y1="184.996" x2="374.061" y2="189.496" stroke="white"/>
<line x1="518.441" y1="302.843" x2="535.674" y2="244.128" stroke="url(#paint16_linear_100_2)"/>
<line x1="504.909" y1="288.625" x2="524.165" y2="214.942" stroke="url(#paint17_linear_100_2)"/>
<line x1="485.001" y1="266.403" x2="484.096" y2="184.311" stroke="url(#paint18_linear_100_2)"/>
<line x1="467.596" y1="247.126" x2="464.992" y2="165.07" stroke="url(#paint19_linear_100_2)"/>
<line x1="493.118" y1="275.493" x2="503.717" y2="181.66" stroke="url(#paint20_linear_100_2)"/>
<line x1="453.856" y1="231.933" x2="445.117" y2="157.774" stroke="url(#paint21_linear_100_2)"/>
<line y1="-0.5" x2="65.4676" y2="-0.5" transform="matrix(-0.24649 -0.969145 0.933603 -0.35831 421.185 195.305)" stroke="url(#paint22_linear_100_2)"/>
<line x1="437.729" y1="213.495" x2="383.067" y2="220.908" stroke="white"/>
<rect x="133.143" y="81.463" width="235" height="78" fill="white" stroke="black" stroke-width="2"/>
<rect x="251" y="175" width="197" height="78" fill="white" stroke="black" stroke-width="2"/>
<path d="M181.863 106.8C183.639 106.8 185.187 107.136 186.507 107.808C187.851 108.48 188.955 109.416 189.819 110.616C190.683 111.792 191.319 113.136 191.727 114.648C192.159 116.16 192.375 117.744 192.375 119.4C192.375 121.704 191.991 123.816 191.223 125.736C190.479 127.632 189.327 129.156 187.767 130.308C186.231 131.436 184.263 132 181.863 132H172.683C172.395 132 172.143 131.892 171.927 131.676C171.711 131.46 171.603 131.208 171.603 130.92V107.88C171.603 107.592 171.711 107.34 171.927 107.124C172.143 106.908 172.395 106.8 172.683 106.8H181.863ZM181.503 129.876C183.543 129.876 185.187 129.408 186.435 128.472C187.683 127.536 188.595 126.276 189.171 124.692C189.771 123.084 190.071 121.32 190.071 119.4C190.071 118.008 189.903 116.688 189.567 115.44C189.255 114.168 188.751 113.052 188.055 112.092C187.383 111.108 186.495 110.34 185.391 109.788C184.311 109.212 183.015 108.924 181.503 108.924H173.619L173.871 108.6V130.236L173.655 129.876H181.503ZM214.356 122.784C214.356 124.608 213.96 126.252 213.168 127.716C212.376 129.156 211.296 130.296 209.928 131.136C208.56 131.952 207 132.36 205.248 132.36C203.544 132.36 201.996 131.952 200.604 131.136C199.236 130.296 198.144 129.156 197.328 127.716C196.536 126.252 196.14 124.608 196.14 122.784C196.14 120.936 196.536 119.292 197.328 117.852C198.144 116.412 199.236 115.272 200.604 114.432C201.996 113.592 203.544 113.172 205.248 113.172C207 113.172 208.56 113.592 209.928 114.432C211.296 115.272 212.376 116.412 213.168 117.852C213.96 119.292 214.356 120.936 214.356 122.784ZM212.196 122.784C212.196 121.32 211.896 120.024 211.296 118.896C210.696 117.744 209.868 116.844 208.812 116.196C207.78 115.524 206.592 115.188 205.248 115.188C203.952 115.188 202.776 115.524 201.72 116.196C200.664 116.844 199.824 117.744 199.2 118.896C198.6 120.024 198.3 121.32 198.3 122.784C198.3 124.248 198.6 125.544 199.2 126.672C199.824 127.8 200.664 128.7 201.72 129.372C202.776 130.02 203.952 130.344 205.248 130.344C206.592 130.344 207.78 130.02 208.812 129.372C209.868 128.7 210.696 127.8 211.296 126.672C211.896 125.544 212.196 124.248 212.196 122.784ZM227.622 113.172C229.206 113.172 230.466 113.496 231.402 114.144C232.362 114.768 233.046 115.632 233.454 116.736C233.886 117.816 234.102 119.016 234.102 120.336V130.92C234.102 131.208 233.994 131.46 233.778 131.676C233.562 131.892 233.31 132 233.022 132C232.686 132 232.422 131.892 232.23 131.676C232.038 131.46 231.942 131.208 231.942 130.92V120.444C231.942 119.484 231.786 118.608 231.474 117.816C231.162 117.024 230.646 116.388 229.926 115.908C229.23 115.428 228.306 115.188 227.154 115.188C226.122 115.188 225.138 115.428 224.202 115.908C223.29 116.388 222.546 117.024 221.97 117.816C221.394 118.608 221.106 119.484 221.106 120.444V130.92C221.106 131.208 220.998 131.46 220.782 131.676C220.566 131.892 220.314 132 220.026 132C219.69 132 219.426 131.892 219.234 131.676C219.042 131.46 218.946 131.208 218.946 130.92V114.792C218.946 114.504 219.042 114.252 219.234 114.036C219.45 113.82 219.714 113.712 220.026 113.712C220.338 113.712 220.59 113.82 220.782 114.036C220.998 114.252 221.106 114.504 221.106 114.792V117.816L220.278 119.112C220.326 118.344 220.566 117.612 220.998 116.916C221.454 116.196 222.03 115.56 222.726 115.008C223.422 114.432 224.19 113.988 225.03 113.676C225.894 113.34 226.758 113.172 227.622 113.172ZM254.843 113.604C255.155 113.604 255.407 113.712 255.599 113.928C255.815 114.144 255.923 114.408 255.923 114.72V130.92C255.923 131.208 255.815 131.46 255.599 131.676C255.383 131.892 255.131 132 254.843 132C254.531 132 254.267 131.892 254.051 131.676C253.859 131.46 253.763 131.208 253.763 130.92V126.636L254.375 126.348C254.375 127.02 254.183 127.704 253.799 128.4C253.439 129.096 252.935 129.744 252.287 130.344C251.639 130.944 250.871 131.436 249.983 131.82C249.119 132.18 248.183 132.36 247.175 132.36C245.543 132.36 244.079 131.94 242.783 131.1C241.511 130.26 240.503 129.108 239.759 127.644C239.039 126.18 238.679 124.536 238.679 122.712C238.679 120.84 239.051 119.196 239.795 117.78C240.539 116.34 241.547 115.212 242.819 114.396C244.091 113.58 245.531 113.172 247.139 113.172C248.171 113.172 249.131 113.352 250.019 113.712C250.931 114.072 251.723 114.564 252.395 115.188C253.067 115.812 253.583 116.532 253.943 117.348C254.327 118.14 254.519 118.968 254.519 119.832L253.763 119.292V114.72C253.763 114.408 253.859 114.144 254.051 113.928C254.267 113.712 254.531 113.604 254.843 113.604ZM247.355 130.344C248.627 130.344 249.755 130.02 250.739 129.372C251.723 128.7 252.491 127.788 253.043 126.636C253.619 125.46 253.907 124.152 253.907 122.712C253.907 121.296 253.619 120.024 253.043 118.896C252.491 117.768 251.723 116.868 250.739 116.196C249.755 115.524 248.627 115.188 247.355 115.188C246.107 115.188 244.979 115.512 243.971 116.16C242.987 116.808 242.207 117.696 241.631 118.824C241.079 119.952 240.803 121.248 240.803 122.712C240.803 124.152 241.079 125.46 241.631 126.636C242.207 127.788 242.987 128.7 243.971 129.372C244.955 130.02 246.083 130.344 247.355 130.344ZM260.403 113.676H268.791C269.079 113.676 269.319 113.784 269.511 114C269.703 114.192 269.799 114.432 269.799 114.72C269.799 114.984 269.703 115.212 269.511 115.404C269.319 115.596 269.079 115.692 268.791 115.692H260.403C260.115 115.692 259.863 115.596 259.647 115.404C259.455 115.188 259.359 114.948 259.359 114.684C259.359 114.396 259.455 114.156 259.647 113.964C259.863 113.772 260.115 113.676 260.403 113.676ZM264.111 108.6C264.423 108.6 264.675 108.708 264.867 108.924C265.083 109.14 265.191 109.392 265.191 109.68V127.752C265.191 128.424 265.275 128.928 265.443 129.264C265.635 129.6 265.875 129.828 266.163 129.948C266.451 130.044 266.739 130.092 267.027 130.092C267.219 130.092 267.387 130.068 267.531 130.02C267.699 129.948 267.879 129.912 268.071 129.912C268.287 129.912 268.467 129.996 268.611 130.164C268.779 130.332 268.863 130.548 268.863 130.812C268.863 131.148 268.671 131.436 268.287 131.676C267.903 131.892 267.447 132 266.919 132C266.703 132 266.379 131.988 265.947 131.964C265.515 131.916 265.071 131.784 264.615 131.568C264.159 131.328 263.775 130.92 263.463 130.344C263.175 129.768 263.031 128.94 263.031 127.86V109.68C263.031 109.392 263.127 109.14 263.319 108.924C263.535 108.708 263.799 108.6 264.111 108.6ZM282.178 113.46C283.69 113.46 284.914 113.784 285.85 114.432C286.786 115.08 287.47 115.956 287.902 117.06C288.358 118.164 288.586 119.388 288.586 120.732V130.92C288.586 131.208 288.478 131.46 288.262 131.676C288.046 131.892 287.794 132 287.506 132C287.17 132 286.906 131.892 286.714 131.676C286.522 131.46 286.426 131.208 286.426 130.92V120.732C286.426 119.748 286.27 118.86 285.958 118.068C285.67 117.276 285.19 116.652 284.518 116.196C283.846 115.716 282.946 115.476 281.818 115.476C280.81 115.476 279.85 115.716 278.938 116.196C278.05 116.652 277.33 117.276 276.778 118.068C276.226 118.86 275.95 119.748 275.95 120.732V130.92C275.95 131.208 275.842 131.46 275.626 131.676C275.41 131.892 275.158 132 274.87 132C274.534 132 274.27 131.892 274.078 131.676C273.886 131.46 273.79 131.208 273.79 130.92V106.44C273.79 106.152 273.886 105.9 274.078 105.684C274.294 105.468 274.558 105.36 274.87 105.36C275.182 105.36 275.434 105.468 275.626 105.684C275.842 105.9 275.95 106.152 275.95 106.44V118.104L275.122 119.364C275.17 118.62 275.398 117.9 275.806 117.204C276.238 116.484 276.79 115.848 277.462 115.296C278.134 114.72 278.878 114.276 279.694 113.964C280.51 113.628 281.338 113.46 282.178 113.46ZM309.335 113.604C309.647 113.604 309.899 113.712 310.091 113.928C310.307 114.144 310.415 114.408 310.415 114.72V130.92C310.415 131.208 310.307 131.46 310.091 131.676C309.875 131.892 309.623 132 309.335 132C309.023 132 308.759 131.892 308.543 131.676C308.351 131.46 308.255 131.208 308.255 130.92V126.636L308.867 126.348C308.867 127.02 308.675 127.704 308.291 128.4C307.931 129.096 307.427 129.744 306.779 130.344C306.131 130.944 305.363 131.436 304.475 131.82C303.611 132.18 302.675 132.36 301.667 132.36C300.035 132.36 298.571 131.94 297.275 131.1C296.003 130.26 294.995 129.108 294.251 127.644C293.531 126.18 293.171 124.536 293.171 122.712C293.171 120.84 293.543 119.196 294.287 117.78C295.031 116.34 296.039 115.212 297.311 114.396C298.583 113.58 300.023 113.172 301.631 113.172C302.663 113.172 303.623 113.352 304.511 113.712C305.423 114.072 306.215 114.564 306.887 115.188C307.559 115.812 308.075 116.532 308.435 117.348C308.819 118.14 309.011 118.968 309.011 119.832L308.255 119.292V114.72C308.255 114.408 308.351 114.144 308.543 113.928C308.759 113.712 309.023 113.604 309.335 113.604ZM301.847 130.344C303.119 130.344 304.247 130.02 305.231 129.372C306.215 128.7 306.983 127.788 307.535 126.636C308.111 125.46 308.399 124.152 308.399 122.712C308.399 121.296 308.111 120.024 307.535 118.896C306.983 117.768 306.215 116.868 305.231 116.196C304.247 115.524 303.119 115.188 301.847 115.188C300.599 115.188 299.471 115.512 298.463 116.16C297.479 116.808 296.699 117.696 296.123 118.824C295.571 119.952 295.295 121.248 295.295 122.712C295.295 124.152 295.571 125.46 296.123 126.636C296.699 127.788 297.479 128.7 298.463 129.372C299.447 130.02 300.575 130.344 301.847 130.344ZM324.759 113.172C326.343 113.172 327.603 113.496 328.539 114.144C329.499 114.768 330.183 115.632 330.591 116.736C331.023 117.816 331.239 119.016 331.239 120.336V130.92C331.239 131.208 331.131 131.46 330.915 131.676C330.699 131.892 330.447 132 330.159 132C329.823 132 329.559 131.892 329.367 131.676C329.175 131.46 329.079 131.208 329.079 130.92V120.444C329.079 119.484 328.923 118.608 328.611 117.816C328.299 117.024 327.783 116.388 327.063 115.908C326.367 115.428 325.443 115.188 324.291 115.188C323.259 115.188 322.275 115.428 321.339 115.908C320.427 116.388 319.683 117.024 319.107 117.816C318.531 118.608 318.243 119.484 318.243 120.444V130.92C318.243 131.208 318.135 131.46 317.919 131.676C317.703 131.892 317.451 132 317.163 132C316.827 132 316.563 131.892 316.371 131.676C316.179 131.46 316.083 131.208 316.083 130.92V114.792C316.083 114.504 316.179 114.252 316.371 114.036C316.587 113.82 316.851 113.712 317.163 113.712C317.475 113.712 317.727 113.82 317.919 114.036C318.135 114.252 318.243 114.504 318.243 114.792V117.816L317.415 119.112C317.463 118.344 317.703 117.612 318.135 116.916C318.591 116.196 319.167 115.56 319.863 115.008C320.559 114.432 321.327 113.988 322.167 113.676C323.031 113.34 323.895 113.172 324.759 113.172Z" fill="#1D1D1D"/>
<path d="M310.004 202.8C312.02 202.8 313.592 203.352 314.72 204.456C315.872 205.536 316.448 207.048 316.448 208.992C316.448 210 316.232 210.96 315.8 211.872C315.368 212.784 314.732 213.528 313.892 214.104C313.052 214.656 312.008 214.968 310.76 215.04L310.616 214.32C311.504 214.32 312.368 214.452 313.208 214.716C314.072 214.956 314.84 215.352 315.512 215.904C316.184 216.456 316.724 217.152 317.132 217.992C317.54 218.808 317.744 219.804 317.744 220.98C317.744 222.228 317.528 223.308 317.096 224.22C316.688 225.108 316.124 225.828 315.404 226.38C314.708 226.932 313.904 227.34 312.992 227.604C312.08 227.868 311.132 228 310.148 228H300.464C300.176 228 299.924 227.892 299.708 227.676C299.492 227.46 299.384 227.208 299.384 226.92V203.88C299.384 203.592 299.492 203.34 299.708 203.124C299.924 202.908 300.176 202.8 300.464 202.8H310.004ZM309.716 204.924H301.256L301.688 204.276V214.464L301.292 213.924H309.716C310.964 213.9 312.008 213.492 312.848 212.7C313.712 211.908 314.144 210.732 314.144 209.172C314.144 207.852 313.76 206.82 312.992 206.076C312.224 205.308 311.132 204.924 309.716 204.924ZM309.968 216.084H301.508L301.688 215.868V226.2L301.472 225.876H310.04C311.576 225.876 312.86 225.492 313.892 224.724C314.924 223.932 315.44 222.684 315.44 220.98C315.44 219.78 315.188 218.82 314.684 218.1C314.18 217.38 313.508 216.864 312.668 216.552C311.828 216.24 310.928 216.084 309.968 216.084ZM323.373 228C323.037 228 322.773 227.892 322.581 227.676C322.389 227.46 322.293 227.208 322.293 226.92V210.792C322.293 210.504 322.389 210.252 322.581 210.036C322.797 209.82 323.061 209.712 323.373 209.712C323.685 209.712 323.937 209.82 324.129 210.036C324.345 210.252 324.453 210.504 324.453 210.792V216.192L323.913 216.3C323.985 215.46 324.189 214.632 324.525 213.816C324.885 212.976 325.365 212.208 325.965 211.512C326.565 210.816 327.273 210.252 328.089 209.82C328.929 209.388 329.865 209.172 330.897 209.172C331.329 209.172 331.749 209.268 332.157 209.46C332.565 209.628 332.769 209.916 332.769 210.324C332.769 210.684 332.673 210.96 332.481 211.152C332.289 211.344 332.061 211.44 331.797 211.44C331.581 211.44 331.341 211.38 331.077 211.26C330.837 211.14 330.513 211.08 330.105 211.08C329.433 211.08 328.761 211.284 328.089 211.692C327.417 212.076 326.805 212.604 326.253 213.276C325.701 213.948 325.257 214.704 324.921 215.544C324.609 216.36 324.453 217.188 324.453 218.028V226.92C324.453 227.208 324.345 227.46 324.129 227.676C323.913 227.892 323.661 228 323.373 228ZM352.472 218.784C352.472 220.608 352.076 222.252 351.284 223.716C350.492 225.156 349.412 226.296 348.044 227.136C346.676 227.952 345.116 228.36 343.364 228.36C341.66 228.36 340.112 227.952 338.72 227.136C337.352 226.296 336.26 225.156 335.444 223.716C334.652 222.252 334.256 220.608 334.256 218.784C334.256 216.936 334.652 215.292 335.444 213.852C336.26 212.412 337.352 211.272 338.72 210.432C340.112 209.592 341.66 209.172 343.364 209.172C345.116 209.172 346.676 209.592 348.044 210.432C349.412 211.272 350.492 212.412 351.284 213.852C352.076 215.292 352.472 216.936 352.472 218.784ZM350.312 218.784C350.312 217.32 350.012 216.024 349.412 214.896C348.812 213.744 347.984 212.844 346.928 212.196C345.896 211.524 344.708 211.188 343.364 211.188C342.068 211.188 340.892 211.524 339.836 212.196C338.78 212.844 337.94 213.744 337.316 214.896C336.716 216.024 336.416 217.32 336.416 218.784C336.416 220.248 336.716 221.544 337.316 222.672C337.94 223.8 338.78 224.7 339.836 225.372C340.892 226.02 342.068 226.344 343.364 226.344C344.708 226.344 345.896 226.02 346.928 225.372C347.984 224.7 348.812 223.8 349.412 222.672C350.012 221.544 350.312 220.248 350.312 218.784ZM378.915 209.208C379.179 209.208 379.419 209.304 379.635 209.496C379.875 209.688 379.995 209.952 379.995 210.288C379.995 210.36 379.983 210.444 379.959 210.54C379.935 210.636 379.911 210.708 379.887 210.756L374.343 227.316C374.247 227.532 374.091 227.712 373.875 227.856C373.683 227.976 373.479 228.024 373.263 228C372.831 227.976 372.507 227.748 372.291 227.316L367.215 215.364L367.863 215.508L363.363 227.316C363.171 227.748 362.847 227.976 362.391 228C362.175 228.024 361.959 227.976 361.743 227.856C361.527 227.712 361.383 227.532 361.311 227.316L355.623 210.756C355.551 210.588 355.515 210.432 355.515 210.288C355.515 209.976 355.611 209.724 355.803 209.532C356.019 209.316 356.295 209.208 356.631 209.208C356.847 209.208 357.039 209.268 357.207 209.388C357.399 209.508 357.531 209.688 357.603 209.928L362.715 225.264L362.031 225.228L366.675 213.528C366.867 213.072 367.203 212.844 367.683 212.844C367.923 212.844 368.127 212.904 368.295 213.024C368.463 213.144 368.595 213.312 368.691 213.528L373.623 225.264L372.831 225.3L377.907 209.928C378.051 209.448 378.387 209.208 378.915 209.208ZM392.809 209.172C394.393 209.172 395.653 209.496 396.589 210.144C397.549 210.768 398.233 211.632 398.641 212.736C399.073 213.816 399.289 215.016 399.289 216.336V226.92C399.289 227.208 399.181 227.46 398.965 227.676C398.749 227.892 398.497 228 398.209 228C397.873 228 397.609 227.892 397.417 227.676C397.225 227.46 397.129 227.208 397.129 226.92V216.444C397.129 215.484 396.973 214.608 396.661 213.816C396.349 213.024 395.833 212.388 395.113 211.908C394.417 211.428 393.493 211.188 392.341 211.188C391.309 211.188 390.325 211.428 389.389 211.908C388.477 212.388 387.733 213.024 387.157 213.816C386.581 214.608 386.293 215.484 386.293 216.444V226.92C386.293 227.208 386.185 227.46 385.969 227.676C385.753 227.892 385.501 228 385.213 228C384.877 228 384.613 227.892 384.421 227.676C384.229 227.46 384.133 227.208 384.133 226.92V210.792C384.133 210.504 384.229 210.252 384.421 210.036C384.637 209.82 384.901 209.712 385.213 209.712C385.525 209.712 385.777 209.82 385.969 210.036C386.185 210.252 386.293 210.504 386.293 210.792V213.816L385.465 215.112C385.513 214.344 385.753 213.612 386.185 212.916C386.641 212.196 387.217 211.56 387.913 211.008C388.609 210.432 389.377 209.988 390.217 209.676C391.081 209.34 391.945 209.172 392.809 209.172Z" fill="#1D1D1D"/>
<defs>
<filter id="filter0_i_100_2" x="41.1256" y="34.4579" width="173.061" height="171.581" filterUnits="userSpaceOnUse" color-interpolation-filters="sRGB">
<feFlood flood-opacity="0" result="BackgroundImageFix"/>
<feBlend mode="normal" in="SourceGraphic" in2="BackgroundImageFix" result="shape"/>
<feColorMatrix in="SourceAlpha" type="matrix" values="0 0 0 0 0 0 0 0 0 0 0 0 0 0 0 0 0 0 127 0" result="hardAlpha"/>
<feOffset dy="4"/>
<feGaussianBlur stdDeviation="2"/>
<feComposite in2="hardAlpha" operator="arithmetic" k2="-1" k3="1"/>
<feColorMatrix type="matrix" values="0 0 0 0 0 0 0 0 0 0 0 0 0 0 0 0 0 0 0.5 0"/>
<feBlend mode="normal" in2="shape" result="effect1_innerShadow_100_2"/>
</filter>
<filter id="filter1_i_100_2" x="370.846" y="145.707" width="165.695" height="179.173" filterUnits="userSpaceOnUse" color-interpolation-filters="sRGB">
<feFlood flood-opacity="0" result="BackgroundImageFix"/>
<feBlend mode="normal" in="SourceGraphic" in2="BackgroundImageFix" result="shape"/>
<feColorMatrix in="SourceAlpha" type="matrix" values="0 0 0 0 0 0 0 0 0 0 0 0 0 0 0 0 0 0 127 0" result="hardAlpha"/>
<feOffset dy="4"/>
<feGaussianBlur stdDeviation="2"/>
<feComposite in2="hardAlpha" operator="arithmetic" k2="-1" k3="1"/>
<feColorMatrix type="matrix" values="0 0 0 0 0 0 0 0 0 0 0 0 0 0 0 0 0 0 0.5 0"/>
<feBlend mode="normal" in2="shape" result="effect1_innerShadow_100_2"/>
</filter>
<linearGradient id="paint0_linear_100_2" x1="58.9999" y1="182.5" x2="50.9999" y2="127" gradientUnits="userSpaceOnUse">
<stop stop-color="white"/>
<stop offset="1" stop-color="white" stop-opacity="0"/>
</linearGradient>
<linearGradient id="paint1_linear_100_2" x1="75" y1="168" x2="66" y2="100.5" gradientUnits="userSpaceOnUse">
<stop stop-color="white"/>
<stop offset="1" stop-color="white" stop-opacity="0.25"/>
</linearGradient>
<linearGradient id="paint2_linear_100_2" x1="96.0001" y1="147.5" x2="87.0001" y2="79.5" gradientUnits="userSpaceOnUse">
<stop stop-color="white"/>
<stop offset="1" stop-color="white" stop-opacity="0.25"/>
</linearGradient>
<linearGradient id="paint3_linear_100_2" x1="116" y1="129" x2="107.5" y2="64.5" gradientUnits="userSpaceOnUse">
<stop stop-color="white"/>
<stop offset="1" stop-color="white" stop-opacity="0.25"/>
</linearGradient>
<linearGradient id="paint4_linear_100_2" x1="175" y1="74" x2="170.5" y2="37" gradientUnits="userSpaceOnUse">
<stop stop-color="white"/>
<stop offset="1" stop-color="white" stop-opacity="0.25"/>
</linearGradient>
<linearGradient id="paint5_linear_100_2" x1="59.5" y1="184.5" x2="110.5" y2="198.5" gradientUnits="userSpaceOnUse">
<stop stop-color="white"/>
<stop offset="1" stop-color="white" stop-opacity="0"/>
</linearGradient>
<linearGradient id="paint6_linear_100_2" x1="74" y1="170.5" x2="139.5" y2="186.5" gradientUnits="userSpaceOnUse">
<stop stop-color="white"/>
<stop offset="1" stop-color="white" stop-opacity="0.25"/>
</linearGradient>
<linearGradient id="paint7_linear_100_2" x1="95.959" y1="150.006" x2="247.804" y2="146.96" gradientUnits="userSpaceOnUse">
<stop stop-color="white"/>
<stop offset="1" stop-color="white" stop-opacity="0.25"/>
</linearGradient>
<linearGradient id="paint8_linear_100_2" x1="115.309" y1="132.55" x2="205.518" y2="131.288" gradientUnits="userSpaceOnUse">
<stop stop-color="white"/>
<stop offset="1" stop-color="white" stop-opacity="0"/>
</linearGradient>
<linearGradient id="paint9_linear_100_2" x1="87" y1="158.5" x2="162" y2="166" gradientUnits="userSpaceOnUse">
<stop stop-color="white"/>
<stop offset="1" stop-color="white" stop-opacity="0.25"/>
</linearGradient>
<linearGradient id="paint10_linear_100_2" x1="-0.0380148" y1="-0.242248" x2="45.4149" y2="9.9783" gradientUnits="userSpaceOnUse">
<stop stop-color="white"/>
<stop offset="1" stop-color="white" stop-opacity="0.25"/>
</linearGradient>
<linearGradient id="paint11_linear_100_2" x1="146.5" y1="101" x2="138.5" y2="48" gradientUnits="userSpaceOnUse">
<stop stop-color="white"/>
<stop offset="1" stop-color="white" stop-opacity="0.25"/>
</linearGradient>
<linearGradient id="paint12_linear_100_2" x1="517" y1="302.5" x2="461.5" y2="310" gradientUnits="userSpaceOnUse">
<stop stop-color="white"/>
<stop offset="1" stop-color="white" stop-opacity="0.25"/>
</linearGradient>
<linearGradient id="paint13_linear_100_2" x1="502.5" y1="286.5" x2="435.5" y2="295" gradientUnits="userSpaceOnUse">
<stop stop-color="white"/>
<stop offset="1" stop-color="white" stop-opacity="0.25"/>
</linearGradient>
<linearGradient id="paint14_linear_100_2" x1="483" y1="265.5" x2="414.5" y2="274" gradientUnits="userSpaceOnUse">
<stop stop-color="white"/>
<stop offset="0.984375" stop-color="white" stop-opacity="0.25"/>
</linearGradient>
<linearGradient id="paint15_linear_100_2" x1="464.579" y1="244.949" x2="317.36" y2="255.111" gradientUnits="userSpaceOnUse">
<stop stop-color="white"/>
<stop offset="1" stop-color="white" stop-opacity="0.25"/>
</linearGradient>
<linearGradient id="paint16_linear_100_2" x1="518.5" y1="302.5" x2="533.5" y2="252" gradientUnits="userSpaceOnUse">
<stop stop-color="white"/>
<stop offset="1" stop-color="white" stop-opacity="0.25"/>
</linearGradient>
<linearGradient id="paint17_linear_100_2" x1="505" y1="287.5" x2="522" y2="223" gradientUnits="userSpaceOnUse">
<stop stop-color="white"/>
<stop offset="1" stop-color="white" stop-opacity="0.25"/>
</linearGradient>
<linearGradient id="paint18_linear_100_2" x1="485" y1="265.5" x2="484" y2="187.5" gradientUnits="userSpaceOnUse">
<stop stop-color="white"/>
<stop offset="1" stop-color="white" stop-opacity="0.25"/>
</linearGradient>
<linearGradient id="paint19_linear_100_2" x1="467.5" y1="246" x2="465.5" y2="175.5" gradientUnits="userSpaceOnUse">
<stop stop-color="white"/>
<stop offset="1" stop-color="white" stop-opacity="0.25"/>
</linearGradient>
<linearGradient id="paint20_linear_100_2" x1="494" y1="273.5" x2="501.5" y2="200" gradientUnits="userSpaceOnUse">
<stop stop-color="white"/>
<stop offset="1" stop-color="white" stop-opacity="0.25"/>
</linearGradient>
<linearGradient id="paint21_linear_100_2" x1="454" y1="231" x2="446" y2="165" gradientUnits="userSpaceOnUse">
<stop stop-color="white"/>
<stop offset="1" stop-color="white" stop-opacity="0"/>
</linearGradient>
<linearGradient id="paint22_linear_100_2" x1="0.533622" y1="-0.593137" x2="45.422" y2="10.1069" gradientUnits="userSpaceOnUse">
<stop stop-color="white"/>
<stop offset="1" stop-color="white" stop-opacity="0.25"/>
</linearGradient>
</defs>
</svg>
