<svg width="22" height="20" viewBox="0 0 22 20" fill="none" xmlns="http://www.w3.org/2000/svg">
<path d="M12.1218 8.0957C12.6818 8.75645 12.8036 9.78521 12.4045 11.0056C12.0084 12.217 11.1181 13.5346 9.80789 14.6452C8.49764 15.7558 7.052 16.4182 5.7921 16.6105C4.52282 16.8043 3.52789 16.5157 2.96782 15.8549C2.40774 15.1942 2.28601 14.1654 2.68506 12.945C3.08115 11.7336 3.97143 10.416 5.28168 9.30541C6.59194 8.19479 8.03758 7.53238 9.29747 7.34008C10.5668 7.14634 11.5617 7.43495 12.1218 8.0957Z" stroke="#D6D6D6"/>
<path d="M18.4284 3.37461C18.9885 4.03536 19.1102 5.06412 18.7112 6.28452C18.3151 7.4959 17.4248 8.8135 16.1146 9.92412C14.8043 11.0347 13.3587 11.6971 12.0988 11.8895C10.8295 12.0832 9.83457 11.7946 9.27449 11.1338C8.71442 10.4731 8.59268 9.44432 8.99173 8.22391C9.38782 7.01254 10.2781 5.69494 11.5884 4.58432C12.8986 3.4737 14.3442 2.81129 15.6041 2.61899C16.8734 2.42525 17.8684 2.71386 18.4284 3.37461Z" stroke="#D6D6D6"/>
</svg>
