<svg width="93" height="90" viewBox="0 0 93 90" fill="none" xmlns="http://www.w3.org/2000/svg">
<ellipse cx="46.5" cy="45" rx="46.5" ry="45" fill="white"/>
<g filter="url(#filter0_i_195_3)">
<path d="M71.6236 18.2493C79.7075 23.2435 59.0254 56.317 55.525 58.3599C42.9807 70.0324 23.7273 64.7798 23.7273 64.7798C20.8099 54.2743 27.5195 39.5376 28.3946 38.9539C37.2921 24.6549 63.5397 13.2551 71.6236 18.2493Z" fill="#1D1D1D"/>
</g>
<line y1="-1" x2="8.75299" y2="-1" transform="matrix(0.730719 -0.682679 0.682442 0.73094 19 69.9755)" stroke="#1D1D1D" stroke-width="2"/>
<path d="M25.0714 63.6514L73.3657 18.2746" stroke="white"/>
<line y1="-0.5" x2="18.0802" y2="-0.5" transform="matrix(-0.139105 -0.990278 0.990265 -0.139194 28.4301 60.506)" stroke="url(#paint0_linear_195_3)"/>
<line y1="-0.5" x2="20.7218" y2="-0.5" transform="matrix(-0.135451 -0.990784 0.990772 -0.135537 33.0976 56.1288)" stroke="url(#paint1_linear_195_3)"/>
<line y1="-0.5" x2="21.8788" y2="-0.5" transform="matrix(-0.128287 -0.991737 0.991726 -0.128369 39.2238 50.5843)" stroke="url(#paint2_linear_195_3)"/>
<line y1="-0.5" x2="21.8788" y2="-0.5" transform="matrix(-0.128287 -0.991737 0.991726 -0.128369 45.0582 45.0398)" stroke="url(#paint3_linear_195_3)"/>
<line y1="-0.5" x2="21.8788" y2="-0.5" transform="matrix(-0.128287 -0.991737 0.991726 -0.128369 62.2698 28.6981)" stroke="url(#paint4_linear_195_3)"/>
<line y1="-0.5" x2="17.8514" y2="-0.5" transform="matrix(0.964159 0.265325 -0.265165 0.964203 28 61)" stroke="url(#paint5_linear_195_3)"/>
<line y1="-0.5" x2="22.2173" y2="-0.5" transform="matrix(0.97165 0.236424 -0.236279 0.971685 32.3328 56.9006)" stroke="url(#paint6_linear_195_3)"/>
<line y1="-0.5" x2="22.7193" y2="-0.5" transform="matrix(0.999753 -0.0222348 0.0222203 0.999753 38.7543 50.9858)" stroke="url(#paint7_linear_195_3)"/>
<line y1="-0.5" x2="20.3855" y2="-0.5" transform="matrix(0.999894 -0.0145227 0.0145133 0.999895 44.2935 45.8116)" stroke="url(#paint8_linear_195_3)"/>
<line y1="-0.5" x2="27.5474" y2="-0.5" transform="matrix(0.995445 0.0953395 -0.0952782 0.995451 36.1252 53.3989)" stroke="url(#paint9_linear_195_3)"/>
<line y1="-0.5" x2="19.6842" y2="-0.5" transform="matrix(0.986251 -0.165255 0.165163 0.986266 48.7166 42.0395)" stroke="url(#paint10_linear_195_3)"/>
<line y1="-0.5" x2="19.0988" y2="-0.5" transform="matrix(0.957209 -0.289398 0.399346 0.9168 59.2437 32.1189)" stroke="url(#paint11_linear_195_3)"/>
<line y1="-0.5" x2="17.4162" y2="-0.5" transform="matrix(-0.15075 -0.988572 0.988557 -0.150846 53.9203 36.7653)" stroke="url(#paint12_linear_195_3)"/>
<defs>
<filter id="filter0_i_195_3" x="22.9973" y="17.0554" width="50.4857" height="52.903" filterUnits="userSpaceOnUse" color-interpolation-filters="sRGB">
<feFlood flood-opacity="0" result="BackgroundImageFix"/>
<feBlend mode="normal" in="SourceGraphic" in2="BackgroundImageFix" result="shape"/>
<feColorMatrix in="SourceAlpha" type="matrix" values="0 0 0 0 0 0 0 0 0 0 0 0 0 0 0 0 0 0 127 0" result="hardAlpha"/>
<feOffset dy="4"/>
<feGaussianBlur stdDeviation="2"/>
<feComposite in2="hardAlpha" operator="arithmetic" k2="-1" k3="1"/>
<feColorMatrix type="matrix" values="0 0 0 0 0 0 0 0 0 0 0 0 0 0 0 0 0 0 0.5 0"/>
<feBlend mode="normal" in2="shape" result="effect1_innerShadow_195_3"/>
</filter>
<linearGradient id="paint0_linear_195_3" x1="0.277489" y1="-0.62255" x2="16.6407" y2="-0.639529" gradientUnits="userSpaceOnUse">
<stop stop-color="white"/>
<stop offset="1" stop-color="white" stop-opacity="0"/>
</linearGradient>
<linearGradient id="paint1_linear_195_3" x1="0.132255" y1="-0.693676" x2="20.0042" y2="-0.674189" gradientUnits="userSpaceOnUse">
<stop stop-color="white"/>
<stop offset="1" stop-color="white" stop-opacity="0.25"/>
</linearGradient>
<linearGradient id="paint2_linear_195_3" x1="0.564892" y1="-0.504354" x2="20.5814" y2="-0.521324" gradientUnits="userSpaceOnUse">
<stop stop-color="white"/>
<stop offset="1" stop-color="white" stop-opacity="0.25"/>
</linearGradient>
<linearGradient id="paint3_linear_195_3" x1="0.42019" y1="-0.568564" x2="19.405" y2="-0.581557" gradientUnits="userSpaceOnUse">
<stop stop-color="white"/>
<stop offset="1" stop-color="white" stop-opacity="0.25"/>
</linearGradient>
<linearGradient id="paint4_linear_195_3" x1="0.130789" y1="-0.696999" x2="11.0078" y2="-0.672693" gradientUnits="userSpaceOnUse">
<stop stop-color="white"/>
<stop offset="1" stop-color="white" stop-opacity="0.25"/>
</linearGradient>
<linearGradient id="paint5_linear_195_3" x1="0.0839995" y1="-0.358363" x2="15.5126" y2="-0.360828" gradientUnits="userSpaceOnUse">
<stop stop-color="white"/>
<stop offset="1" stop-color="white" stop-opacity="0"/>
</linearGradient>
<linearGradient id="paint6_linear_195_3" x1="0.212897" y1="-0.692233" x2="19.8829" y2="-0.686654" gradientUnits="userSpaceOnUse">
<stop stop-color="white"/>
<stop offset="1" stop-color="white" stop-opacity="0.25"/>
</linearGradient>
<linearGradient id="paint7_linear_195_3" x1="0.243753" y1="-0.706192" x2="44.5493" y2="-0.678191" gradientUnits="userSpaceOnUse">
<stop stop-color="white"/>
<stop offset="1" stop-color="white" stop-opacity="0.25"/>
</linearGradient>
<linearGradient id="paint8_linear_195_3" x1="0.346492" y1="-0.4325" x2="26.6652" y2="-0.428441" gradientUnits="userSpaceOnUse">
<stop stop-color="white"/>
<stop offset="1" stop-color="white" stop-opacity="0"/>
</linearGradient>
<linearGradient id="paint9_linear_195_3" x1="0.23952" y1="-0.580721" x2="22.228" y2="-0.553671" gradientUnits="userSpaceOnUse">
<stop stop-color="white"/>
<stop offset="1" stop-color="white" stop-opacity="0.25"/>
</linearGradient>
<linearGradient id="paint10_linear_195_3" x1="0.861732" y1="-0.402627" x2="20.672" y2="-0.63571" gradientUnits="userSpaceOnUse">
<stop stop-color="white"/>
<stop offset="1" stop-color="white" stop-opacity="0"/>
</linearGradient>
<linearGradient id="paint11_linear_195_3" x1="-0.01109" y1="-0.242248" x2="13.8596" y2="0.667642" gradientUnits="userSpaceOnUse">
<stop stop-color="white"/>
<stop offset="1" stop-color="white" stop-opacity="0.25"/>
</linearGradient>
<linearGradient id="paint12_linear_195_3" x1="0.316083" y1="-0.469276" x2="15.9575" y2="-0.462144" gradientUnits="userSpaceOnUse">
<stop stop-color="white"/>
<stop offset="1" stop-color="white" stop-opacity="0.25"/>
</linearGradient>
</defs>
</svg>
