<svg width="28" height="28" viewBox="0 0 28 28" fill="none" xmlns="http://www.w3.org/2000/svg">
<circle cx="14" cy="14" r="14" fill="white"/>
<g filter="url(#filter0_i_89_2)">
<path d="M21.2639 4.8424C23.9233 6.03937 18.7334 16.7319 17.7299 17.4752C14.2868 21.4443 8.18686 20.5861 8.18686 20.5861C6.92081 17.5432 8.46344 12.8723 8.71177 12.6646C10.942 8.04341 18.6046 3.64543 21.2639 4.8424Z" fill="#1D1D1D"/>
</g>
<line y1="-0.25" x2="5" y2="-0.25" transform="matrix(0.709744 -0.704459 0.721034 0.6929 5.78625 23.2274)" stroke="#1D1D1D" stroke-width="0.5"/>
<path d="M8.55017 20.1903L21.8197 4.80335" stroke="white" stroke-width="0.5"/>
<line y1="-0.25" x2="5.46133" y2="-0.25" transform="matrix(-0.348461 -0.937323 0.938309 -0.345799 9.66803 18.9438)" stroke="white" stroke-width="0.5"/>
<line y1="-0.25" x2="6.25908" y2="-0.25" transform="matrix(-0.30408 -0.952646 0.953452 -0.301545 10.8892 17.5107)" stroke="white" stroke-width="0.5"/>
<line y1="-0.25" x2="6.6083" y2="-0.25" transform="matrix(-0.264802 -0.964303 0.964912 -0.262572 12.5144 15.6781)" stroke="white" stroke-width="0.5"/>
<line y1="-0.25" x2="6.6083" y2="-0.25" transform="matrix(-0.272864 -0.962052 0.962681 -0.27064 14.1705 13.8177)" stroke="white" stroke-width="0.5"/>
<line y1="-0.25" x2="6.6083" y2="-0.25" transform="matrix(-0.274274 -0.961652 0.962283 -0.27205 18.9828 8.35486)" stroke="white" stroke-width="0.5"/>
<line y1="-0.25" x2="5.50991" y2="-0.25" transform="matrix(0.987352 0.158545 -0.173946 0.984755 9.32889 19.1647)" stroke="white" stroke-width="0.5"/>
<line y1="-0.25" x2="6.86051" y2="-0.25" transform="matrix(0.99157 0.129568 -0.143915 0.98959 10.4655 17.8265)" stroke="white" stroke-width="0.5"/>
<line y1="-0.25" x2="7.41245" y2="-0.25" transform="matrix(0.991456 -0.13044 0.127894 0.991788 12.2646 15.8437)" stroke="white" stroke-width="0.5"/>
<line y1="-0.25" x2="7.41314" y2="-0.25" transform="matrix(0.988618 -0.150447 0.148899 0.988852 13.8144 14.1115)" stroke="white" stroke-width="0.5"/>
<line y1="-0.25" x2="8.52026" y2="-0.25" transform="matrix(0.998343 -0.0575324 0.0491534 0.998791 11.5345 16.8546)" stroke="white" stroke-width="0.5"/>
<line y1="-0.25" x2="6.743" y2="-0.25" transform="matrix(0.961758 -0.273901 0.276385 0.961047 15.0753 12.8837)" stroke="white" stroke-width="0.5"/>
<line x1="17.5004" y1="9.86039" x2="23.3586" y2="7.05171" stroke="white" stroke-width="0.5"/>
<line y1="-0.25" x2="5.2604" y2="-0.25" transform="matrix(-0.251862 -0.967763 0.968615 -0.248565 16.5062 11.085)" stroke="white" stroke-width="0.5"/>
<defs>
<filter id="filter0_i_89_2" x="7.69379" y="4.64319" width="14.3201" height="20.0211" filterUnits="userSpaceOnUse" color-interpolation-filters="sRGB">
<feFlood flood-opacity="0" result="BackgroundImageFix"/>
<feBlend mode="normal" in="SourceGraphic" in2="BackgroundImageFix" result="shape"/>
<feColorMatrix in="SourceAlpha" type="matrix" values="0 0 0 0 0 0 0 0 0 0 0 0 0 0 0 0 0 0 127 0" result="hardAlpha"/>
<feOffset dy="4"/>
<feGaussianBlur stdDeviation="2"/>
<feComposite in2="hardAlpha" operator="arithmetic" k2="-1" k3="1"/>
<feColorMatrix type="matrix" values="0 0 0 0 0 0 0 0 0 0 0 0 0 0 0 0 0 0 0.5 0"/>
<feBlend mode="normal" in2="shape" result="effect1_innerShadow_89_2"/>
</filter>
</defs>
</svg>
