<svg width="568" height="362" viewBox="0 0 568 362" fill="none" xmlns="http://www.w3.org/2000/svg">
<g filter="url(#filter0_i_100_2)">
<path d="M207.813 38.5491C235.524 55.6632 164.627 169 152.628 176C109.627 216 43.6283 198 43.6283 198C33.6275 162 56.6274 111.5 59.6273 109.5C90.1273 60.5 180.102 21.435 207.813 38.5491Z" fill="#1D1D1D"/>
</g>
<line x1="23.4448" y1="216.746" x2="45.3696" y2="196.269" stroke="#1D1D1D" stroke-width="2"/>
<path d="M48.2355 194.133L213.785 38.6359" stroke="white"/>
<line x1="59.2536" y1="183.425" x2="50.6322" y2="122.07" stroke="url(#paint0_linear_100_2)"/>
<line x1="75.2533" y1="168.423" x2="65.6319" y2="98.0677" stroke="url(#paint1_linear_100_2)"/>
<line x1="96.2529" y1="149.419" x2="86.6315" y2="75.0642" stroke="url(#paint2_linear_100_2)"/>
<line x1="116.253" y1="130.419" x2="106.631" y2="56.0642" stroke="url(#paint3_linear_100_2)"/>
<line x1="175.253" y1="74.4192" x2="165.631" y2="0.0641681" stroke="url(#paint4_linear_100_2)"/>
<line x1="59.2599" y1="184.287" x2="118.26" y2="200.518" stroke="url(#paint5_linear_100_2)"/>
<line x1="73.2455" y1="170.514" x2="147.245" y2="188.514" stroke="url(#paint6_linear_100_2)"/>
<line x1="95.1282" y1="150.231" x2="172.989" y2="148.5" stroke="url(#paint7_linear_100_2)"/>
<line x1="114.12" y1="132.5" x2="183.993" y2="131.486" stroke="url(#paint8_linear_100_2)"/>
<line x1="86.175" y1="158.502" x2="180.175" y2="167.502" stroke="url(#paint9_linear_100_2)"/>
<line x1="129.107" y1="118.876" x2="195.876" y2="109.134" stroke="white"/>
<line y1="-0.5" x2="65.4676" y2="-0.5" transform="matrix(0.964809 -0.26295 0.374149 0.927369 165.127 85.2147)" stroke="url(#paint10_linear_100_2)"/>
<line x1="146.633" y1="102.075" x2="137.633" y2="43.0754" stroke="url(#paint11_linear_100_2)"/>
<g filter="url(#filter1_i_100_2)">
<path d="M375.253 151.831C392.836 124.415 504.95 197.231 511.745 209.347C551.007 253.023 531.887 318.706 531.887 318.706C495.721 328.092 445.62 304.236 443.671 301.203C395.198 269.873 357.67 179.247 375.253 151.831Z" fill="#1D1D1D"/>
</g>
<line x1="550.286" y1="339.205" x2="530.185" y2="316.935" stroke="#1D1D1D" stroke-width="2"/>
<path d="M528.099 314.033L375.441 145.862" stroke="white"/>
<line x1="517.579" y1="302.835" x2="456.086" y2="310.41" stroke="url(#paint12_linear_100_2)"/>
<line x1="502.852" y1="286.582" x2="432.343" y2="295.004" stroke="url(#paint13_linear_100_2)"/>
<line x1="484.208" y1="265.262" x2="409.7" y2="273.616" stroke="url(#paint14_linear_100_2)"/>
<line x1="465.529" y1="244.943" x2="398.034" y2="249.499" stroke="url(#paint15_linear_100_2)"/>
<line x1="410.569" y1="184.996" x2="374.061" y2="189.496" stroke="white"/>
<line x1="518.441" y1="302.843" x2="535.674" y2="244.128" stroke="url(#paint16_linear_100_2)"/>
<line x1="504.909" y1="288.625" x2="524.165" y2="214.942" stroke="url(#paint17_linear_100_2)"/>
<line x1="485.001" y1="266.403" x2="484.096" y2="184.311" stroke="url(#paint18_linear_100_2)"/>
<line x1="467.596" y1="247.126" x2="464.992" y2="165.07" stroke="url(#paint19_linear_100_2)"/>
<line x1="493.118" y1="275.493" x2="503.717" y2="181.66" stroke="url(#paint20_linear_100_2)"/>
<line x1="453.856" y1="231.933" x2="445.117" y2="157.774" stroke="url(#paint21_linear_100_2)"/>
<line y1="-0.5" x2="65.4676" y2="-0.5" transform="matrix(-0.24649 -0.969145 0.933603 -0.35831 421.185 195.305)" stroke="url(#paint22_linear_100_2)"/>
<line x1="437.729" y1="213.495" x2="383.067" y2="220.908" stroke="white"/>
<rect x="133.143" y="81.463" width="235" height="78" rx="3" fill="#1D1D1D" stroke="black" stroke-width="2"/>
<rect x="251" y="175" width="197" height="78" rx="3" fill="#1D1D1D" stroke="black" stroke-width="2"/>
<g filter="url(#filter2_d_100_2)">
<path d="M176.97 108C179.11 108 180.98 108.44 182.58 109.32C184.2 110.18 185.46 111.4 186.36 112.98C187.28 114.56 187.74 116.4 187.74 118.5C187.74 120.6 187.28 122.44 186.36 124.02C185.46 125.58 184.2 126.8 182.58 127.68C180.98 128.56 179.11 129 176.97 129H170.55L170.52 128.1C170.52 128.1 170.73 128.1 171.15 128.1C171.59 128.1 172.13 128.1 172.77 128.1C173.43 128.1 174.08 128.1 174.72 128.1C175.36 128.1 175.89 128.1 176.31 128.1C176.75 128.1 176.97 128.1 176.97 128.1C178.69 128.1 180.18 127.7 181.44 126.9C182.72 126.1 183.71 124.98 184.41 123.54C185.13 122.1 185.49 120.42 185.49 118.5C185.49 116.58 185.13 114.9 184.41 113.46C183.71 112.02 182.72 110.9 181.44 110.1C180.16 109.3 178.67 108.9 176.97 108.9C176.97 108.9 176.74 108.9 176.28 108.9C175.84 108.9 175.28 108.9 174.6 108.9C173.94 108.9 173.27 108.9 172.59 108.9C171.93 108.9 171.37 108.9 170.91 108.9C170.45 108.9 170.22 108.9 170.22 108.9V108H176.97ZM171.06 108V129H169.11V108H171.06ZM169.2 126.81V129H166.8V128.7C166.8 128.7 166.86 128.7 166.98 128.7C167.12 128.7 167.19 128.7 167.19 128.7C167.71 128.7 168.15 128.52 168.51 128.16C168.89 127.78 169.09 127.33 169.11 126.81H169.2ZM169.2 110.19H169.11C169.11 109.67 168.92 109.23 168.54 108.87C168.16 108.49 167.71 108.3 167.19 108.3C167.19 108.3 167.13 108.3 167.01 108.3C166.89 108.3 166.83 108.3 166.83 108.3L166.8 108H169.2V110.19ZM200.809 110.58C202.209 110.58 203.519 110.81 204.739 111.27C205.979 111.71 207.059 112.35 207.979 113.19C208.919 114.03 209.649 115.03 210.169 116.19C210.689 117.33 210.949 118.6 210.949 120C210.949 121.4 210.689 122.68 210.169 123.84C209.649 124.98 208.919 125.97 207.979 126.81C207.059 127.65 205.979 128.3 204.739 128.76C203.519 129.2 202.209 129.42 200.809 129.42C199.409 129.42 198.099 129.2 196.879 128.76C195.659 128.3 194.579 127.65 193.639 126.81C192.719 125.97 191.999 124.98 191.479 123.84C190.959 122.68 190.699 121.4 190.699 120C190.699 118.6 190.959 117.33 191.479 116.19C191.999 115.03 192.719 114.03 193.639 113.19C194.579 112.35 195.659 111.71 196.879 111.27C198.099 110.81 199.409 110.58 200.809 110.58ZM200.809 128.52C202.289 128.52 203.629 128.16 204.829 127.44C206.029 126.72 206.979 125.72 207.679 124.44C208.379 123.16 208.729 121.68 208.729 120C208.729 118.3 208.379 116.82 207.679 115.56C206.979 114.28 206.029 113.28 204.829 112.56C203.629 111.84 202.289 111.48 200.809 111.48C199.349 111.48 198.019 111.84 196.819 112.56C195.619 113.28 194.669 114.28 193.969 115.56C193.269 116.82 192.919 118.3 192.919 120C192.919 121.68 193.269 123.16 193.969 124.44C194.669 125.72 195.619 126.72 196.819 127.44C198.019 128.16 199.349 128.52 200.809 128.52ZM215.525 110.55L232.145 126.21L232.445 129.42L215.825 113.67L215.525 110.55ZM215.585 127.14V129H213.335V128.7C213.335 128.7 213.415 128.7 213.575 128.7C213.755 128.7 213.845 128.7 213.845 128.7C214.305 128.7 214.695 128.55 215.015 128.25C215.335 127.95 215.495 127.58 215.495 127.14H215.585ZM216.845 127.14C216.845 127.58 217.005 127.95 217.325 128.25C217.665 128.55 218.055 128.7 218.495 128.7C218.495 128.7 218.575 128.7 218.735 128.7C218.915 128.7 219.005 128.7 219.005 128.7V129H216.755V127.14H216.845ZM215.525 110.55L216.815 112.23L216.845 129H215.495V114.3C215.495 113.28 215.445 112.4 215.345 111.66C215.265 110.92 215.225 110.55 215.225 110.55H215.525ZM232.445 111V125.58C232.445 126.22 232.465 126.84 232.505 127.44C232.545 128.02 232.585 128.5 232.625 128.88C232.685 129.24 232.715 129.42 232.715 129.42H232.445L231.125 127.83V111H232.445ZM232.355 112.86V111H234.605V111.3C234.605 111.3 234.515 111.3 234.335 111.3C234.175 111.3 234.095 111.3 234.095 111.3C233.655 111.3 233.265 111.45 232.925 111.75C232.605 112.05 232.445 112.42 232.445 112.86H232.355ZM231.125 112.86C231.105 112.42 230.935 112.05 230.615 111.75C230.295 111.45 229.905 111.3 229.445 111.3C229.445 111.3 229.355 111.3 229.175 111.3C229.015 111.3 228.935 111.3 228.935 111.3V111H231.185V112.86H231.125ZM245.744 110.58L253.994 128.82H251.624L245.234 113.25L245.744 110.58ZM239.954 126.81C239.734 127.41 239.764 127.88 240.044 128.22C240.324 128.54 240.644 128.7 241.004 128.7H241.244V129H235.514V128.7C235.514 128.7 235.554 128.7 235.634 128.7C235.714 128.7 235.754 128.7 235.754 128.7C236.174 128.7 236.604 128.56 237.044 128.28C237.484 127.98 237.864 127.49 238.184 126.81H239.954ZM245.744 110.58L245.954 112.65L239.084 128.91H237.194L244.304 113.67C244.304 113.67 244.354 113.55 244.454 113.31C244.574 113.07 244.704 112.78 244.844 112.44C245.004 112.08 245.144 111.73 245.264 111.39C245.384 111.05 245.454 110.78 245.474 110.58H245.744ZM249.284 122.01V122.91H241.334V122.01H249.284ZM250.814 126.81H253.094C253.394 127.49 253.764 127.98 254.204 128.28C254.644 128.56 255.064 128.7 255.464 128.7C255.464 128.7 255.504 128.7 255.584 128.7C255.664 128.7 255.704 128.7 255.704 128.7V129H249.554V128.7H249.794C250.134 128.7 250.444 128.54 250.724 128.22C251.004 127.88 251.034 127.41 250.814 126.81ZM263.107 111.09V129H261.157V111.09H263.107ZM270.367 110.97V111.87H253.897V110.97H270.367ZM270.367 111.81V113.88H270.037V113.4C270.037 112.98 269.897 112.63 269.617 112.35C269.357 112.05 268.997 111.89 268.537 111.87V111.81H270.367ZM270.367 110.49V111.27L267.007 110.97C267.407 110.97 267.827 110.95 268.267 110.91C268.727 110.85 269.147 110.78 269.527 110.7C269.907 110.62 270.187 110.55 270.367 110.49ZM261.217 127.08V129H259.027V128.7C259.047 128.7 259.107 128.7 259.207 128.7C259.327 128.7 259.387 128.7 259.387 128.7C259.867 128.7 260.277 128.54 260.617 128.22C260.957 127.9 261.137 127.52 261.157 127.08H261.217ZM263.017 127.08H263.107C263.127 127.52 263.307 127.9 263.647 128.22C263.987 128.54 264.397 128.7 264.877 128.7C264.877 128.7 264.927 128.7 265.027 128.7C265.147 128.7 265.207 128.7 265.207 128.7V129H263.017V127.08ZM255.727 111.81V111.87C255.267 111.89 254.897 112.05 254.617 112.35C254.357 112.63 254.227 112.98 254.227 113.4V113.88H253.897V111.81H255.727ZM253.897 110.49C254.077 110.55 254.347 110.62 254.707 110.7C255.087 110.78 255.507 110.85 255.967 110.91C256.427 110.95 256.857 110.97 257.257 110.97L253.897 111.27V110.49ZM289.451 111V129H287.531V111H289.451ZM276.461 111V129H274.541V111H276.461ZM287.831 119.67V120.57H276.131V119.67H287.831ZM274.631 127.08V129H272.441V128.7C272.441 128.7 272.501 128.7 272.621 128.7C272.741 128.7 272.801 128.7 272.801 128.7C273.281 128.7 273.681 128.54 274.001 128.22C274.341 127.9 274.521 127.52 274.541 127.08H274.631ZM276.371 127.08H276.461C276.461 127.52 276.631 127.9 276.971 128.22C277.311 128.54 277.721 128.7 278.201 128.7C278.201 128.7 278.261 128.7 278.381 128.7C278.501 128.7 278.561 128.7 278.561 128.7V129H276.371V127.08ZM276.371 112.92V111H278.561V111.3C278.561 111.3 278.501 111.3 278.381 111.3C278.261 111.3 278.201 111.3 278.201 111.3C277.721 111.3 277.311 111.46 276.971 111.78C276.631 112.08 276.461 112.46 276.461 112.92H276.371ZM274.631 112.92H274.541C274.521 112.46 274.341 112.08 274.001 111.78C273.681 111.46 273.281 111.3 272.801 111.3C272.801 111.3 272.741 111.3 272.621 111.3C272.501 111.3 272.441 111.3 272.441 111.3V111H274.631V112.92ZM287.621 127.08V129H285.431V128.7C285.431 128.7 285.491 128.7 285.611 128.7C285.731 128.7 285.791 128.7 285.791 128.7C286.271 128.7 286.671 128.54 286.991 128.22C287.331 127.9 287.511 127.52 287.531 127.08H287.621ZM289.361 127.08H289.451C289.471 127.52 289.641 127.9 289.961 128.22C290.301 128.54 290.711 128.7 291.191 128.7C291.191 128.7 291.251 128.7 291.371 128.7C291.491 128.7 291.551 128.7 291.551 128.7V129H289.361V127.08ZM289.361 112.92V111H291.551V111.3C291.551 111.3 291.491 111.3 291.371 111.3C291.251 111.3 291.191 111.3 291.191 111.3C290.711 111.3 290.301 111.46 289.961 111.78C289.641 112.08 289.471 112.46 289.451 112.92H289.361ZM287.621 112.92H287.531C287.511 112.46 287.331 112.08 286.991 111.78C286.671 111.46 286.271 111.3 285.791 111.3C285.791 111.3 285.731 111.3 285.611 111.3C285.491 111.3 285.431 111.3 285.431 111.3V111H287.621V112.92ZM303.254 110.58L311.504 128.82H309.134L302.744 113.25L303.254 110.58ZM297.464 126.81C297.244 127.41 297.274 127.88 297.554 128.22C297.834 128.54 298.154 128.7 298.514 128.7H298.754V129H293.024V128.7C293.024 128.7 293.064 128.7 293.144 128.7C293.224 128.7 293.264 128.7 293.264 128.7C293.684 128.7 294.114 128.56 294.554 128.28C294.994 127.98 295.374 127.49 295.694 126.81H297.464ZM303.254 110.58L303.464 112.65L296.594 128.91H294.704L301.814 113.67C301.814 113.67 301.864 113.55 301.964 113.31C302.084 113.07 302.214 112.78 302.354 112.44C302.514 112.08 302.654 111.73 302.774 111.39C302.894 111.05 302.964 110.78 302.984 110.58H303.254ZM306.794 122.01V122.91H298.844V122.01H306.794ZM308.324 126.81H310.604C310.904 127.49 311.274 127.98 311.714 128.28C312.154 128.56 312.574 128.7 312.974 128.7C312.974 128.7 313.014 128.7 313.094 128.7C313.174 128.7 313.214 128.7 313.214 128.7V129H307.064V128.7H307.304C307.644 128.7 307.954 128.54 308.234 128.22C308.514 127.88 308.544 127.41 308.324 126.81ZM316.306 110.55L332.926 126.21L333.226 129.42L316.606 113.67L316.306 110.55ZM316.366 127.14V129H314.116V128.7C314.116 128.7 314.196 128.7 314.356 128.7C314.536 128.7 314.626 128.7 314.626 128.7C315.086 128.7 315.476 128.55 315.796 128.25C316.116 127.95 316.276 127.58 316.276 127.14H316.366ZM317.626 127.14C317.626 127.58 317.786 127.95 318.106 128.25C318.446 128.55 318.836 128.7 319.276 128.7C319.276 128.7 319.356 128.7 319.516 128.7C319.696 128.7 319.786 128.7 319.786 128.7V129H317.536V127.14H317.626ZM316.306 110.55L317.596 112.23L317.626 129H316.276V114.3C316.276 113.28 316.226 112.4 316.126 111.66C316.046 110.92 316.006 110.55 316.006 110.55H316.306ZM333.226 111V125.58C333.226 126.22 333.246 126.84 333.286 127.44C333.326 128.02 333.366 128.5 333.406 128.88C333.466 129.24 333.496 129.42 333.496 129.42H333.226L331.906 127.83V111H333.226ZM333.136 112.86V111H335.386V111.3C335.386 111.3 335.296 111.3 335.116 111.3C334.956 111.3 334.876 111.3 334.876 111.3C334.436 111.3 334.046 111.45 333.706 111.75C333.386 112.05 333.226 112.42 333.226 112.86H333.136ZM331.906 112.86C331.886 112.42 331.716 112.05 331.396 111.75C331.076 111.45 330.686 111.3 330.226 111.3C330.226 111.3 330.136 111.3 329.956 111.3C329.796 111.3 329.716 111.3 329.716 111.3V111H331.966V112.86H331.906Z" fill="white"/>
</g>
<g filter="url(#filter3_d_100_2)">
<path d="M299.59 202H302.77C304.17 202 305.35 202.21 306.31 202.63C307.29 203.05 308.03 203.64 308.53 204.4C309.03 205.14 309.28 206.01 309.28 207.01C309.28 207.85 309.12 208.59 308.8 209.23C308.48 209.85 308.07 210.36 307.57 210.76C307.07 211.14 306.54 211.41 305.98 211.57C307.04 211.73 307.95 212.08 308.71 212.62C309.49 213.16 310.08 213.84 310.48 214.66C310.9 215.46 311.11 216.36 311.11 217.36C311.11 218.48 310.84 219.47 310.3 220.33C309.76 221.17 308.96 221.83 307.9 222.31C306.86 222.77 305.6 223 304.12 223H300.79C300.79 223 300.79 222.91 300.79 222.73C300.81 222.55 300.82 222.37 300.82 222.19C300.82 222.01 300.82 221.92 300.82 221.92H304C305.04 221.92 305.92 221.74 306.64 221.38C307.36 221 307.91 220.45 308.29 219.73C308.67 219.01 308.86 218.15 308.86 217.15C308.86 216.03 308.64 215.12 308.2 214.42C307.78 213.72 307.23 213.19 306.55 212.83C305.87 212.47 305.13 212.23 304.33 212.11C303.55 211.97 302.8 211.9 302.08 211.9V211.63C302.54 211.63 303.05 211.58 303.61 211.48C304.17 211.38 304.71 211.18 305.23 210.88C305.75 210.58 306.18 210.14 306.52 209.56C306.86 208.96 307.03 208.18 307.03 207.22C307.03 206.32 306.86 205.55 306.52 204.91C306.2 204.27 305.71 203.79 305.05 203.47C304.41 203.13 303.61 202.96 302.65 202.96H299.89C299.89 202.94 299.86 202.86 299.8 202.72C299.76 202.56 299.71 202.4 299.65 202.24C299.61 202.08 299.59 202 299.59 202ZM301.06 202V223H299.11V202H301.06ZM299.2 220.81V223H296.8L296.83 222.7C296.87 222.7 296.93 222.7 297.01 222.7C297.11 222.7 297.17 222.7 297.19 222.7C297.71 222.7 298.16 222.52 298.54 222.16C298.92 221.78 299.11 221.33 299.11 220.81H299.2ZM299.2 204.19H299.11C299.11 203.67 298.92 203.23 298.54 202.87C298.16 202.49 297.71 202.3 297.19 202.3C297.17 202.3 297.11 202.3 297.01 202.3C296.93 202.3 296.87 202.3 296.83 202.3L296.8 202H299.2V204.19ZM317.595 205H321.465C322.405 205 323.245 205.11 323.985 205.33C324.745 205.55 325.385 205.87 325.905 206.29C326.445 206.71 326.855 207.22 327.135 207.82C327.415 208.42 327.555 209.1 327.555 209.86C327.555 210.7 327.355 211.48 326.955 212.2C326.555 212.92 325.995 213.51 325.275 213.97C324.575 214.43 323.775 214.71 322.875 214.81C323.215 214.95 323.605 215.26 324.045 215.74C324.505 216.22 324.895 216.69 325.215 217.15C325.215 217.15 325.345 217.33 325.605 217.69C325.865 218.03 326.195 218.46 326.595 218.98C327.015 219.48 327.425 219.96 327.825 220.42C328.245 220.88 328.625 221.28 328.965 221.62C329.325 221.96 329.705 222.23 330.105 222.43C330.525 222.61 331.005 222.7 331.545 222.7V223H330.615C329.515 223 328.605 222.86 327.885 222.58C327.185 222.3 326.615 221.96 326.175 221.56C325.735 221.14 325.355 220.74 325.035 220.36C324.955 220.26 324.765 220.01 324.465 219.61C324.185 219.19 323.875 218.74 323.535 218.26C323.195 217.78 322.885 217.35 322.605 216.97C322.325 216.57 322.155 216.33 322.095 216.25C321.695 215.73 321.235 215.27 320.715 214.87C320.195 214.45 319.645 214.24 319.065 214.24V213.94C319.065 213.94 319.225 213.95 319.545 213.97C319.865 213.97 320.275 213.96 320.775 213.94C321.335 213.92 321.895 213.88 322.455 213.82C323.015 213.74 323.535 213.52 324.015 213.16C324.515 212.8 324.905 212.2 325.185 211.36C325.265 211.14 325.325 210.88 325.365 210.58C325.405 210.28 325.415 209.97 325.395 209.65C325.375 209.09 325.265 208.59 325.065 208.15C324.885 207.71 324.615 207.33 324.255 207.01C323.915 206.69 323.505 206.44 323.025 206.26C322.545 206.08 322.005 205.98 321.405 205.96C320.465 205.92 319.645 205.91 318.945 205.93C318.245 205.95 317.895 205.95 317.895 205.93C317.895 205.91 317.865 205.83 317.805 205.69C317.765 205.53 317.715 205.38 317.655 205.24C317.615 205.08 317.595 205 317.595 205ZM317.955 205V223H316.035V205H317.955ZM316.125 221.08L316.485 223H313.935V222.7C313.935 222.7 314.005 222.7 314.145 222.7C314.285 222.7 314.355 222.7 314.355 222.7C314.835 222.7 315.235 222.54 315.555 222.22C315.875 221.9 316.045 221.52 316.065 221.08H316.125ZM316.125 206.89H316.065C316.045 206.43 315.875 206.05 315.555 205.75C315.235 205.45 314.835 205.3 314.355 205.3C314.355 205.3 314.285 205.3 314.145 205.3C314.005 205.3 313.935 205.3 313.935 205.3V205H316.485L316.125 206.89ZM317.865 221.08H317.955C317.975 221.52 318.145 221.9 318.465 222.22C318.785 222.54 319.185 222.7 319.665 222.7C319.665 222.7 319.725 222.7 319.845 222.7C319.985 222.7 320.055 222.7 320.055 222.7L320.085 223H317.505L317.865 221.08ZM341.649 204.58C343.049 204.58 344.359 204.81 345.579 205.27C346.819 205.71 347.899 206.35 348.819 207.19C349.759 208.03 350.489 209.03 351.009 210.19C351.529 211.33 351.789 212.6 351.789 214C351.789 215.4 351.529 216.68 351.009 217.84C350.489 218.98 349.759 219.97 348.819 220.81C347.899 221.65 346.819 222.3 345.579 222.76C344.359 223.2 343.049 223.42 341.649 223.42C340.249 223.42 338.939 223.2 337.719 222.76C336.499 222.3 335.419 221.65 334.479 220.81C333.559 219.97 332.839 218.98 332.319 217.84C331.799 216.68 331.539 215.4 331.539 214C331.539 212.6 331.799 211.33 332.319 210.19C332.839 209.03 333.559 208.03 334.479 207.19C335.419 206.35 336.499 205.71 337.719 205.27C338.939 204.81 340.249 204.58 341.649 204.58ZM341.649 222.52C343.129 222.52 344.469 222.16 345.669 221.44C346.869 220.72 347.819 219.72 348.519 218.44C349.219 217.16 349.569 215.68 349.569 214C349.569 212.3 349.219 210.82 348.519 209.56C347.819 208.28 346.869 207.28 345.669 206.56C344.469 205.84 343.129 205.48 341.649 205.48C340.189 205.48 338.859 205.84 337.659 206.56C336.459 207.28 335.509 208.28 334.809 209.56C334.109 210.82 333.759 212.3 333.759 214C333.759 215.68 334.109 217.16 334.809 218.44C335.509 219.72 336.459 220.72 337.659 221.44C338.859 222.16 340.189 222.52 341.649 222.52ZM354.689 205.18H357.089L361.949 219.97L361.679 223.36L354.689 205.18ZM367.019 204.52L367.259 206.95L362.609 220.03C362.609 220.03 362.559 220.21 362.459 220.57C362.359 220.91 362.249 221.34 362.129 221.86C362.029 222.36 361.969 222.86 361.949 223.36H361.679L361.109 220.69L366.719 204.52H367.019ZM367.019 204.55L372.779 219.22L372.089 223.36L365.999 207.79L367.019 204.55ZM378.059 205.18L373.079 220.03C373.079 220.03 373.019 220.21 372.899 220.57C372.799 220.93 372.689 221.37 372.569 221.89C372.469 222.39 372.409 222.88 372.389 223.36H372.089L371.729 220.39L376.349 205.18H378.059ZM375.749 207.1C375.969 206.46 375.949 206 375.689 205.72C375.449 205.44 375.169 205.3 374.849 205.3H374.609V205H380.099V205.3C380.099 205.3 380.059 205.3 379.979 205.3C379.919 205.3 379.889 205.3 379.889 205.3C379.269 205.3 378.749 205.47 378.329 205.81C377.909 206.15 377.609 206.58 377.429 207.1H375.749ZM357.719 207.07L355.439 207.1C355.239 206.58 354.939 206.15 354.539 205.81C354.139 205.47 353.619 205.3 352.979 205.3C352.979 205.3 352.939 205.3 352.859 205.3C352.779 205.3 352.739 205.3 352.739 205.3V205H358.919V205.3H358.679C358.359 205.3 358.069 205.44 357.809 205.72C357.549 205.98 357.519 206.43 357.719 207.07ZM383.201 204.55L399.821 220.21L400.121 223.42L383.501 207.67L383.201 204.55ZM383.261 221.14V223H381.011V222.7C381.011 222.7 381.091 222.7 381.251 222.7C381.431 222.7 381.521 222.7 381.521 222.7C381.981 222.7 382.371 222.55 382.691 222.25C383.011 221.95 383.171 221.58 383.171 221.14H383.261ZM384.521 221.14C384.521 221.58 384.681 221.95 385.001 222.25C385.341 222.55 385.731 222.7 386.171 222.7C386.171 222.7 386.251 222.7 386.411 222.7C386.591 222.7 386.681 222.7 386.681 222.7V223H384.431V221.14H384.521ZM383.201 204.55L384.491 206.23L384.521 223H383.171V208.3C383.171 207.28 383.121 206.4 383.021 205.66C382.941 204.92 382.901 204.55 382.901 204.55H383.201ZM400.121 205V219.58C400.121 220.22 400.141 220.84 400.181 221.44C400.221 222.02 400.261 222.5 400.301 222.88C400.361 223.24 400.391 223.42 400.391 223.42H400.121L398.801 221.83V205H400.121ZM400.031 206.86V205H402.281V205.3C402.281 205.3 402.191 205.3 402.011 205.3C401.851 205.3 401.771 205.3 401.771 205.3C401.331 205.3 400.941 205.45 400.601 205.75C400.281 206.05 400.121 206.42 400.121 206.86H400.031ZM398.801 206.86C398.781 206.42 398.611 206.05 398.291 205.75C397.971 205.45 397.581 205.3 397.121 205.3C397.121 205.3 397.031 205.3 396.851 205.3C396.691 205.3 396.611 205.3 396.611 205.3V205H398.861V206.86H398.801Z" fill="white"/>
</g>
<defs>
<filter id="filter0_i_100_2" x="41.1256" y="34.4579" width="173.061" height="171.581" filterUnits="userSpaceOnUse" color-interpolation-filters="sRGB">
<feFlood flood-opacity="0" result="BackgroundImageFix"/>
<feBlend mode="normal" in="SourceGraphic" in2="BackgroundImageFix" result="shape"/>
<feColorMatrix in="SourceAlpha" type="matrix" values="0 0 0 0 0 0 0 0 0 0 0 0 0 0 0 0 0 0 127 0" result="hardAlpha"/>
<feOffset dy="4"/>
<feGaussianBlur stdDeviation="2"/>
<feComposite in2="hardAlpha" operator="arithmetic" k2="-1" k3="1"/>
<feColorMatrix type="matrix" values="0 0 0 0 0 0 0 0 0 0 0 0 0 0 0 0 0 0 0.5 0"/>
<feBlend mode="normal" in2="shape" result="effect1_innerShadow_100_2"/>
</filter>
<filter id="filter1_i_100_2" x="370.846" y="145.707" width="165.695" height="179.173" filterUnits="userSpaceOnUse" color-interpolation-filters="sRGB">
<feFlood flood-opacity="0" result="BackgroundImageFix"/>
<feBlend mode="normal" in="SourceGraphic" in2="BackgroundImageFix" result="shape"/>
<feColorMatrix in="SourceAlpha" type="matrix" values="0 0 0 0 0 0 0 0 0 0 0 0 0 0 0 0 0 0 127 0" result="hardAlpha"/>
<feOffset dy="4"/>
<feGaussianBlur stdDeviation="2"/>
<feComposite in2="hardAlpha" operator="arithmetic" k2="-1" k3="1"/>
<feColorMatrix type="matrix" values="0 0 0 0 0 0 0 0 0 0 0 0 0 0 0 0 0 0 0.5 0"/>
<feBlend mode="normal" in2="shape" result="effect1_innerShadow_100_2"/>
</filter>
<filter id="filter2_d_100_2" x="162.8" y="104" width="176.586" height="29.42" filterUnits="userSpaceOnUse" color-interpolation-filters="sRGB">
<feFlood flood-opacity="0" result="BackgroundImageFix"/>
<feColorMatrix in="SourceAlpha" type="matrix" values="0 0 0 0 0 0 0 0 0 0 0 0 0 0 0 0 0 0 127 0" result="hardAlpha"/>
<feOffset/>
<feGaussianBlur stdDeviation="2"/>
<feComposite in2="hardAlpha" operator="out"/>
<feColorMatrix type="matrix" values="0 0 0 0 1 0 0 0 0 1 0 0 0 0 1 0 0 0 0.5 0"/>
<feBlend mode="normal" in2="BackgroundImageFix" result="effect1_dropShadow_100_2"/>
<feBlend mode="normal" in="SourceGraphic" in2="effect1_dropShadow_100_2" result="shape"/>
</filter>
<filter id="filter3_d_100_2" x="292.8" y="198" width="113.481" height="29.42" filterUnits="userSpaceOnUse" color-interpolation-filters="sRGB">
<feFlood flood-opacity="0" result="BackgroundImageFix"/>
<feColorMatrix in="SourceAlpha" type="matrix" values="0 0 0 0 0 0 0 0 0 0 0 0 0 0 0 0 0 0 127 0" result="hardAlpha"/>
<feOffset/>
<feGaussianBlur stdDeviation="2"/>
<feComposite in2="hardAlpha" operator="out"/>
<feColorMatrix type="matrix" values="0 0 0 0 1 0 0 0 0 1 0 0 0 0 1 0 0 0 0.5 0"/>
<feBlend mode="normal" in2="BackgroundImageFix" result="effect1_dropShadow_100_2"/>
<feBlend mode="normal" in="SourceGraphic" in2="effect1_dropShadow_100_2" result="shape"/>
</filter>
<linearGradient id="paint0_linear_100_2" x1="58.9999" y1="182.5" x2="50.9999" y2="127" gradientUnits="userSpaceOnUse">
<stop stop-color="white"/>
<stop offset="1" stop-color="white" stop-opacity="0"/>
</linearGradient>
<linearGradient id="paint1_linear_100_2" x1="75" y1="168" x2="66" y2="100.5" gradientUnits="userSpaceOnUse">
<stop stop-color="white"/>
<stop offset="1" stop-color="white" stop-opacity="0.25"/>
</linearGradient>
<linearGradient id="paint2_linear_100_2" x1="96.0001" y1="147.5" x2="87.0001" y2="79.5" gradientUnits="userSpaceOnUse">
<stop stop-color="white"/>
<stop offset="1" stop-color="white" stop-opacity="0.25"/>
</linearGradient>
<linearGradient id="paint3_linear_100_2" x1="116" y1="129" x2="107.5" y2="64.5" gradientUnits="userSpaceOnUse">
<stop stop-color="white"/>
<stop offset="1" stop-color="white" stop-opacity="0.25"/>
</linearGradient>
<linearGradient id="paint4_linear_100_2" x1="175" y1="74" x2="170.5" y2="37" gradientUnits="userSpaceOnUse">
<stop stop-color="white"/>
<stop offset="1" stop-color="white" stop-opacity="0.25"/>
</linearGradient>
<linearGradient id="paint5_linear_100_2" x1="59.5" y1="184.5" x2="110.5" y2="198.5" gradientUnits="userSpaceOnUse">
<stop stop-color="white"/>
<stop offset="1" stop-color="white" stop-opacity="0"/>
</linearGradient>
<linearGradient id="paint6_linear_100_2" x1="74" y1="170.5" x2="139.5" y2="186.5" gradientUnits="userSpaceOnUse">
<stop stop-color="white"/>
<stop offset="1" stop-color="white" stop-opacity="0.25"/>
</linearGradient>
<linearGradient id="paint7_linear_100_2" x1="95.959" y1="150.006" x2="247.804" y2="146.96" gradientUnits="userSpaceOnUse">
<stop stop-color="white"/>
<stop offset="1" stop-color="white" stop-opacity="0.25"/>
</linearGradient>
<linearGradient id="paint8_linear_100_2" x1="115.309" y1="132.55" x2="205.518" y2="131.288" gradientUnits="userSpaceOnUse">
<stop stop-color="white"/>
<stop offset="1" stop-color="white" stop-opacity="0"/>
</linearGradient>
<linearGradient id="paint9_linear_100_2" x1="87" y1="158.5" x2="162" y2="166" gradientUnits="userSpaceOnUse">
<stop stop-color="white"/>
<stop offset="1" stop-color="white" stop-opacity="0.25"/>
</linearGradient>
<linearGradient id="paint10_linear_100_2" x1="-0.0380148" y1="-0.242248" x2="45.4149" y2="9.9783" gradientUnits="userSpaceOnUse">
<stop stop-color="white"/>
<stop offset="1" stop-color="white" stop-opacity="0.25"/>
</linearGradient>
<linearGradient id="paint11_linear_100_2" x1="146.5" y1="101" x2="138.5" y2="48" gradientUnits="userSpaceOnUse">
<stop stop-color="white"/>
<stop offset="1" stop-color="white" stop-opacity="0.25"/>
</linearGradient>
<linearGradient id="paint12_linear_100_2" x1="517" y1="302.5" x2="461.5" y2="310" gradientUnits="userSpaceOnUse">
<stop stop-color="white"/>
<stop offset="1" stop-color="white" stop-opacity="0.25"/>
</linearGradient>
<linearGradient id="paint13_linear_100_2" x1="502.5" y1="286.5" x2="435.5" y2="295" gradientUnits="userSpaceOnUse">
<stop stop-color="white"/>
<stop offset="1" stop-color="white" stop-opacity="0.25"/>
</linearGradient>
<linearGradient id="paint14_linear_100_2" x1="483" y1="265.5" x2="414.5" y2="274" gradientUnits="userSpaceOnUse">
<stop stop-color="white"/>
<stop offset="0.984375" stop-color="white" stop-opacity="0.25"/>
</linearGradient>
<linearGradient id="paint15_linear_100_2" x1="464.579" y1="244.949" x2="317.36" y2="255.111" gradientUnits="userSpaceOnUse">
<stop stop-color="white"/>
<stop offset="1" stop-color="white" stop-opacity="0.25"/>
</linearGradient>
<linearGradient id="paint16_linear_100_2" x1="518.5" y1="302.5" x2="533.5" y2="252" gradientUnits="userSpaceOnUse">
<stop stop-color="white"/>
<stop offset="1" stop-color="white" stop-opacity="0.25"/>
</linearGradient>
<linearGradient id="paint17_linear_100_2" x1="505" y1="287.5" x2="522" y2="223" gradientUnits="userSpaceOnUse">
<stop stop-color="white"/>
<stop offset="1" stop-color="white" stop-opacity="0.25"/>
</linearGradient>
<linearGradient id="paint18_linear_100_2" x1="485" y1="265.5" x2="484" y2="187.5" gradientUnits="userSpaceOnUse">
<stop stop-color="white"/>
<stop offset="1" stop-color="white" stop-opacity="0.25"/>
</linearGradient>
<linearGradient id="paint19_linear_100_2" x1="467.5" y1="246" x2="465.5" y2="175.5" gradientUnits="userSpaceOnUse">
<stop stop-color="white"/>
<stop offset="1" stop-color="white" stop-opacity="0.25"/>
</linearGradient>
<linearGradient id="paint20_linear_100_2" x1="494" y1="273.5" x2="501.5" y2="200" gradientUnits="userSpaceOnUse">
<stop stop-color="white"/>
<stop offset="1" stop-color="white" stop-opacity="0.25"/>
</linearGradient>
<linearGradient id="paint21_linear_100_2" x1="454" y1="231" x2="446" y2="165" gradientUnits="userSpaceOnUse">
<stop stop-color="white"/>
<stop offset="1" stop-color="white" stop-opacity="0"/>
</linearGradient>
<linearGradient id="paint22_linear_100_2" x1="0.533622" y1="-0.593137" x2="45.422" y2="10.1069" gradientUnits="userSpaceOnUse">
<stop stop-color="white"/>
<stop offset="1" stop-color="white" stop-opacity="0.25"/>
</linearGradient>
</defs>
</svg>
