<svg width="979" height="584" viewBox="0 0 979 584" fill="none" xmlns="http://www.w3.org/2000/svg">
<rect x="0.00213623" width="978.002" height="538.445" fill="white"/>
<rect x="0.00213623" y="440" width="978" height="144" fill="#222222"/>
<path d="M285.526 463.294C283.829 482.449 221.619 492.97 146.178 483.136C70.738 473.303 10.6346 446.839 12.3324 427.683C14.0302 408.528 76.5632 400.972 152.004 410.805C227.444 420.639 287.224 444.139 285.526 463.294Z" fill="white"/>
<ellipse cx="76.6627" cy="166.501" rx="76.6627" ry="166.501" transform="matrix(-0.559673 -0.828713 0.709527 -0.704678 228.814 547.722)" fill="white"/>
<path d="M978.002 510.258C978.002 549.88 977.011 582 886.575 582C796.138 582 716.002 553.435 716.002 513.812C716.002 474.19 924.783 383.965 978.002 381C978.002 486.538 978.002 470.635 978.002 510.258Z" fill="#222222"/>
<path d="M0.00216675 383C53.9625 383 97.6331 413.247 145.212 456.489C216.721 521.479 411.502 386.5 340.002 448.5C294.58 487.887 33.4682 581.035 0.00216675 584C0.00216675 478.461 0.00216675 422.622 0.00216675 383Z" fill="#222222"/>
<path d="M506.648 380.043C554.089 383.607 593.317 402.329 592.18 424.587C683.134 397.902 549.971 464.21 502.53 460.646C455.088 457.082 414.025 433.8 415.162 411.543C416.299 389.285 459.206 376.478 506.648 380.043Z" fill="white"/>
<ellipse cx="736.28" cy="437.881" rx="96.916" ry="35.8132" transform="rotate(18.6187 736.28 437.881)" fill="white"/>
<ellipse cx="854.378" cy="417.129" rx="97.8581" ry="37.3137" transform="rotate(-37.4518 854.378 417.129)" fill="white"/>
<path d="M978.047 402C978.1 415.922 968.373 428.547 952.904 428.606C937.434 428.665 908.502 443 913.002 421C931.002 367 962.603 377.059 978.073 377C978.132 392.604 977.994 388.079 978.047 402Z" fill="#222222"/>
<path d="M458.194 468.471C458.194 487.466 417.96 492.191 385.822 492.191C353.684 492.191 322.252 482.722 322.252 463.727C322.252 444.731 353.684 423.402 385.822 423.402C417.96 423.402 458.194 449.475 458.194 468.471Z" fill="#222222"/>
<path d="M673.502 452.5C674.994 465.475 645.109 474.495 615.151 479.561C585.194 484.627 559.699 478.216 558.207 465.241C556.715 452.267 582.76 437.364 612.718 432.298C642.676 427.231 670.383 438.18 673.502 452.5Z" fill="#222222"/>
</svg>
