<svg width="512" height="492" viewBox="0 0 512 492" fill="none" xmlns="http://www.w3.org/2000/svg">
<path d="M234.976 359.527L421.85 348.995V458.495L443 485.495L220 491.995L239.037 465.995L234.976 359.527Z" fill="#F1CFA2"/>
<circle cx="303" cy="239.994" r="165" fill="#FFDBAC"/>
<path d="M433.5 313.494C433.5 389.433 314.431 458.494 246.5 458.494C178.569 458.494 138 316.433 138 240.494C138 164.555 207.069 177.994 275 177.994C342.931 177.994 433.5 237.555 433.5 313.494Z" fill="#FFDBAC"/>
<rect x="416.505" y="234.761" width="31.2185" height="83.5722" rx="6" transform="rotate(1.03169 416.505 234.761)" fill="#211904"/>
<path d="M466 260.494C449.659 305.091 397.183 153.145 287.5 183.5C201.936 152.147 157.476 185.447 173.817 140.85C190.159 96.2529 271.753 50.9958 357.317 82.3484C455 118.142 482.341 215.897 466 260.494Z" fill="#211904"/>
<path d="M367.002 115.502C389.262 157.46 515.001 223.791 434.501 266.499C378 225.5 425 190.5 166.5 206C136 210 136.5 202.995 162.501 150.999C232.001 36.9992 344.742 73.5451 367.002 115.502Z" fill="#211904"/>
<path d="M479.248 314.585C469.049 342.173 440.121 359.996 428.908 355.851C417.696 351.706 430.08 297.621 440.279 270.033C450.479 242.445 460.074 251.542 471.286 255.687C482.498 259.832 489.448 286.997 479.248 314.585Z" fill="#FFDBAC"/>
<path d="M472.99 234.774C421.469 220.895 422.586 198.23 289.03 189.87C193.671 185.597 104.834 211.404 136.348 176.687C152.824 61.0267 270.221 24.6251 358.282 48.0626C458.816 74.8198 486.297 184.777 472.99 234.774Z" fill="#458EB8"/>
<path d="M140 189H166L162.5 206.5L140 211V189Z" fill="#211904"/>
<path d="M2.50251 196.832C2.4379 192.896 5.24635 189.497 9.12415 188.82L171.1 160.511C175.75 159.699 180.088 163.067 180.453 167.773L181.83 185.507C182.172 189.912 178.878 193.76 174.473 194.102L11.1549 206.777C6.55853 207.134 2.61266 203.542 2.53699 198.932L2.50251 196.832Z" fill="#458EB8"/>
<path d="M254 366.93C254 378.338 270.074 380.7 289.784 380.7C309.495 380.7 323.483 368.108 323.483 356.7C301.983 371.7 300.983 357.602 273.983 345.7C254 341.7 254 355.522 254 366.93Z" fill="#211904"/>
<path d="M257.983 367.225C257.983 378.633 241.909 380.995 222.198 380.995C202.488 380.995 188.5 368.403 188.5 356.995C210 371.995 211 357.897 238 345.995C257.983 341.995 257.983 355.817 257.983 367.225Z" fill="#211904"/>
</svg>
