<svg width="26" height="19" viewBox="0 0 26 19" fill="none" xmlns="http://www.w3.org/2000/svg">
<path d="M25.5 9.5C25.5 11.0035 24.2682 12.4993 21.9688 13.649C19.6993 14.7837 16.5291 15.5 13 15.5C9.47094 15.5 6.3007 14.7837 4.03122 13.649C1.73183 12.4993 0.5 11.0035 0.5 9.5C0.5 7.99649 1.73183 6.50072 4.03122 5.35102C6.3007 4.21628 9.47094 3.5 13 3.5C16.5291 3.5 19.6993 4.21628 21.9688 5.35102C24.2682 6.50072 25.5 7.99649 25.5 9.5Z" stroke="#D6D6D6"/>
<path d="M16.5 9C16.5 11.5952 14.8346 13.5 13 13.5C11.1654 13.5 9.5 11.5952 9.5 9C9.5 6.40484 11.1654 4.5 13 4.5C14.8346 4.5 16.5 6.40484 16.5 9Z" stroke="#D6D6D6"/>
<line y1="-0.5" x2="30.9582" y2="-0.5" transform="matrix(-0.813597 0.581429 -0.642612 -0.766191 25.1875 3.8147e-06)" stroke="#D6D6D6"/>
</svg>
