<svg width="28" height="28" viewBox="0 0 28 28" fill="none" xmlns="http://www.w3.org/2000/svg">
<circle cx="14" cy="14" r="14" fill="white"/>
<g filter="url(#filter0_i_123_2)">
<path d="M23.5575 6.54923C25.9554 8.20899 18.911 17.782 17.7893 18.3308C13.683 21.6091 7.84016 19.6579 7.84016 19.6579C7.14741 16.4358 9.5122 12.1225 9.7941 11.9633C12.826 7.82366 21.1596 4.88948 23.5575 6.54923Z" fill="#1D1D1D"/>
</g>
<line y1="-0.25" x2="5" y2="-0.25" transform="matrix(0.825815 -0.563941 0.583298 0.812259 5 21.8197)" stroke="#1D1D1D" stroke-width="0.5"/>
<path d="M8.26923 19.3347L24.1111 6.61172" stroke="white" stroke-width="0.5"/>
<line y1="-0.25" x2="5.46133" y2="-0.25" transform="matrix(-0.17255 -0.985001 0.985487 -0.169754 9.59479 18.3118)" stroke="white" stroke-width="0.5"/>
<line y1="-0.25" x2="6.25908" y2="-0.25" transform="matrix(-0.126125 -0.992014 0.992346 -0.123486 11.0558 17.1242)" stroke="white" stroke-width="0.5"/>
<line y1="-0.25" x2="6.6083" y2="-0.25" transform="matrix(-0.085384 -0.996348 0.996543 -0.0830808 12.9865 15.6169)" stroke="white" stroke-width="0.5"/>
<line y1="-0.25" x2="6.6083" y2="-0.25" transform="matrix(-0.0937207 -0.995598 0.995812 -0.0914192 14.9529 14.0881)" stroke="white" stroke-width="0.5"/>
<line y1="-0.25" x2="6.6083" y2="-0.25" transform="matrix(-0.0951794 -0.99546 0.995677 -0.0928782 20.6768 9.58936)" stroke="white" stroke-width="0.5"/>
<line y1="-0.25" x2="5.50991" y2="-0.25" transform="matrix(0.942177 0.335115 -0.349789 0.936829 9.22119 18.4675)" stroke="white" stroke-width="0.5"/>
<line y1="-0.25" x2="6.86051" y2="-0.25" transform="matrix(0.951585 0.307385 -0.321134 0.947034 10.5818 17.3578)" stroke="white" stroke-width="0.5"/>
<line y1="-0.25" x2="7.41245" y2="-0.25" transform="matrix(0.998664 0.051675 -0.0542383 0.998528 12.7109 15.7344)" stroke="white" stroke-width="0.5"/>
<line y1="-0.25" x2="7.41314" y2="-0.25" transform="matrix(0.999504 0.0314853 -0.0330499 0.999454 14.5493 14.3123)" stroke="white" stroke-width="0.5"/>
<line y1="-0.25" x2="8.52026" y2="-0.25" transform="matrix(0.992204 0.124621 -0.132943 0.991124 11.8095 16.596)" stroke="white" stroke-width="0.5"/>
<line y1="-0.25" x2="6.743" y2="-0.25" transform="matrix(0.995497 -0.0947937 0.0973656 0.995249 16.0122 13.3338)" stroke="white" stroke-width="0.5"/>
<line x1="18.9457" y1="10.8008" x2="25.2164" y2="9.10204" stroke="white" stroke-width="0.5"/>
<line y1="-0.25" x2="5.2604" y2="-0.25" transform="matrix(-0.0720307 -0.997402 0.997642 -0.0686336 17.7457 11.8246)" stroke="white" stroke-width="0.5"/>
<defs>
<filter id="filter0_i_123_2" x="7.71365" y="6.07721" width="16.3382" height="18.157" filterUnits="userSpaceOnUse" color-interpolation-filters="sRGB">
<feFlood flood-opacity="0" result="BackgroundImageFix"/>
<feBlend mode="normal" in="SourceGraphic" in2="BackgroundImageFix" result="shape"/>
<feColorMatrix in="SourceAlpha" type="matrix" values="0 0 0 0 0 0 0 0 0 0 0 0 0 0 0 0 0 0 127 0" result="hardAlpha"/>
<feOffset dy="4"/>
<feGaussianBlur stdDeviation="2"/>
<feComposite in2="hardAlpha" operator="arithmetic" k2="-1" k3="1"/>
<feColorMatrix type="matrix" values="0 0 0 0 0 0 0 0 0 0 0 0 0 0 0 0 0 0 0.5 0"/>
<feBlend mode="normal" in2="shape" result="effect1_innerShadow_123_2"/>
</filter>
</defs>
</svg>
